<svg width="1440" height="800" viewBox="0 0 1440 800" fill="none" xmlns="http://www.w3.org/2000/svg">
<g clip-path="url(#clip0_1555_2222)">
<rect width="1440" height="800" fill="black"/>
<path opacity="0.6" fill-rule="evenodd" clip-rule="evenodd" d="M-23.0084 -225.807H-23.6091L-23.7817 -225.232L-82.9887 -27.8754H-314.096C-372.725 -27.8754 -424.412 10.5816 -441.259 66.7378L-630.773 698.45L-631.085 699.49H-630H-300.113H-299.512L-299.34 698.914L-81.7872 -26.2606H35.7704L253.323 698.914L253.496 699.49H254.096H583.983H585.068L584.756 698.45L349.969 -84.1754C324.75 -168.239 247.376 -225.807 159.611 -225.807H-23.0084ZM36.3712 -27.8754H-81.3027L-22.4076 -224.193H159.611C246.663 -224.193 323.408 -167.092 348.422 -83.7113L582.898 697.875H254.697L37.1446 -27.3L36.972 -27.8754H36.3712ZM-314.096 -26.2606H-83.4731L-300.714 697.875H-628.915L-439.713 67.2018C-423.071 11.7286 -372.012 -26.2606 -314.096 -26.2606ZM630.167 -27.8754H629.082L629.394 -26.836L847.119 698.914L847.292 699.49H847.892H1177.78H1178.86L1178.55 698.45L989.038 66.7378C972.192 10.5816 920.504 -27.8754 861.875 -27.8754H630.167ZM848.493 697.875L631.252 -26.2606H861.875C919.791 -26.2606 970.85 11.7286 987.492 67.2018L1176.69 697.875H848.493ZM1130.17 -27.8754H1129.08L1129.39 -26.836L1347.12 698.914L1347.29 699.49H1347.89H1677.78H1678.86L1678.55 698.45L1489.04 66.7378C1472.19 10.5816 1420.5 -27.8754 1361.88 -27.8754H1130.17ZM1348.49 697.875L1131.25 -26.2606H1361.88C1419.79 -26.2606 1470.85 11.7286 1487.49 67.2018L1676.69 697.875H1348.49Z" fill="url(#paint0_linear_1555_2222)" fill-opacity="0.8"/>
<circle opacity="0.2" cx="797" cy="551" r="298" fill="url(#paint1_radial_1555_2222)"/>
<circle opacity="0.3" cx="1227" cy="253" r="509" fill="url(#paint2_radial_1555_2222)"/>
</g>
<defs>
<linearGradient id="paint0_linear_1555_2222" x1="-2133.94" y1="-478.161" x2="-2133.94" y2="699.49" gradientUnits="userSpaceOnUse">
<stop stop-color="#636363"/>
<stop offset="1" stop-color="#B8BBC3" stop-opacity="0"/>
</linearGradient>
<radialGradient id="paint1_radial_1555_2222" cx="0" cy="0" r="1" gradientUnits="userSpaceOnUse" gradientTransform="translate(797 551) rotate(90) scale(298)">
<stop stop-color="#1040FF"/>
<stop offset="1" stop-color="#010101" stop-opacity="0"/>
</radialGradient>
<radialGradient id="paint2_radial_1555_2222" cx="0" cy="0" r="1" gradientUnits="userSpaceOnUse" gradientTransform="translate(1227 253) rotate(90) scale(509)">
<stop stop-color="#1040FF"/>
<stop offset="1" stop-color="#010101" stop-opacity="0"/>
</radialGradient>
<clipPath id="clip0_1555_2222">
<rect width="1440" height="800" fill="white"/>
</clipPath>
</defs>
</svg>
